<svg width="28" height="28" viewBox="0 0 28 28" fill="none" xmlns="http://www.w3.org/2000/svg">
<g filter="url(#filter0_d_1_489)">
<path d="M22 0H6C5.46957 0 4.96086 0.210714 4.58579 0.585786C4.21071 0.960859 4 1.46957 4 2V18C4 18.5304 4.21071 19.0391 4.58579 19.4142C4.96086 19.7893 5.46957 20 6 20H22C22.5304 20 23.0391 19.7893 23.4142 19.4142C23.7893 19.0391 24 18.5304 24 18V2C24 1.46957 23.7893 0.960859 23.4142 0.585786C23.0391 0.210714 22.5304 0 22 0V0ZM14 6C14.7911 6 15.5645 6.2346 16.2223 6.67412C16.8801 7.11365 17.3928 7.73836 17.6955 8.46927C17.9983 9.20017 18.0775 10.0044 17.9231 10.7804C17.7688 11.5563 17.3878 12.269 16.8284 12.8284C16.269 13.3878 15.5563 13.7688 14.7804 13.9231C14.0044 14.0775 13.2002 13.9983 12.4693 13.6955C11.7384 13.3928 11.1136 12.8801 10.6741 12.2223C10.2346 11.5645 10 10.7911 10 10C10 8.93913 10.4214 7.92172 11.1716 7.17157C11.9217 6.42143 12.9391 6 14 6ZM6.5 18C6.43825 18.0041 6.37631 17.9959 6.31772 17.976C6.25914 17.956 6.20507 17.9247 6.15861 17.8839C6.11215 17.843 6.07423 17.7933 6.04701 17.7377C6.01979 17.6822 6.00382 17.6218 6 17.56V9H8.1C8.01687 9.32646 7.98316 9.66354 8 10C8 11.5913 8.63214 13.1174 9.75736 14.2426C10.8826 15.3679 12.4087 16 14 16C15.5913 16 17.1174 15.3679 18.2426 14.2426C19.3679 13.1174 20 11.5913 20 10C20.0168 9.66354 19.9831 9.32646 19.9 9H22V17.5C22.0041 17.5617 21.9959 17.6237 21.976 17.6823C21.956 17.7409 21.9247 17.7949 21.8839 17.8414C21.843 17.8878 21.7933 17.9258 21.7377 17.953C21.6822 17.9802 21.6218 17.9962 21.56 18H6.5ZM22 4.5C22.0041 4.56175 21.9959 4.62369 21.976 4.68228C21.956 4.74086 21.9247 4.79493 21.8839 4.84139C21.843 4.88785 21.7933 4.92577 21.7377 4.95299C21.6822 4.98021 21.6218 4.99618 21.56 5H19.5C19.4383 5.00407 19.3763 4.9959 19.3177 4.97597C19.2591 4.95604 19.2051 4.92473 19.1586 4.88385C19.1122 4.84297 19.0742 4.79332 19.047 4.73774C19.0198 4.68217 19.0038 4.62176 19 4.56V2.5C18.9959 2.43825 19.0041 2.37631 19.024 2.31772C19.044 2.25914 19.0753 2.20507 19.1161 2.15861C19.157 2.11215 19.2067 2.07423 19.2623 2.04701C19.3178 2.01979 19.3782 2.00382 19.44 2H21.5C21.5617 1.99593 21.6237 2.0041 21.6823 2.02403C21.7409 2.04396 21.7949 2.07527 21.8414 2.11615C21.8878 2.15703 21.9258 2.20668 21.953 2.26226C21.9802 2.31783 21.9962 2.37824 22 2.44V4.5Z" fill="white"/>
</g>
<defs>
<filter id="filter0_d_1_489" x="0" y="0" width="28" height="28" filterUnits="userSpaceOnUse" color-interpolation-filters="sRGB">
<feFlood flood-opacity="0" result="BackgroundImageFix"/>
<feColorMatrix in="SourceAlpha" type="matrix" values="0 0 0 0 0 0 0 0 0 0 0 0 0 0 0 0 0 0 127 0" result="hardAlpha"/>
<feOffset dy="4"/>
<feGaussianBlur stdDeviation="2"/>
<feComposite in2="hardAlpha" operator="out"/>
<feColorMatrix type="matrix" values="0 0 0 0 0 0 0 0 0 0 0 0 0 0 0 0 0 0 0.25 0"/>
<feBlend mode="normal" in2="BackgroundImageFix" result="effect1_dropShadow_1_489"/>
<feBlend mode="normal" in="SourceGraphic" in2="effect1_dropShadow_1_489" result="shape"/>
</filter>
</defs>
</svg>
