<svg width="35" height="23" viewBox="0 0 35 23" fill="none" xmlns="http://www.w3.org/2000/svg">
<g filter="url(#filter0_d_1_495)">
<path d="M30.7852 13.4705L30.6932 13.3017C29.9568 12.1851 29.0533 11.181 28.0123 10.3226C27.6176 9.9675 27.2419 9.59296 26.8868 9.20048C26.7231 9.05323 26.6134 8.85804 26.5746 8.64469C26.5358 8.43134 26.57 8.21152 26.6719 8.01877C27.0199 7.38381 27.4385 6.78774 27.9202 6.24123L28.8309 5.07938C30.4476 2.994 31.1297 1.66994 30.8773 1.10722L30.7852 0.978128C30.6739 0.867803 30.5316 0.791806 30.376 0.75966C30.079 0.699976 29.7725 0.699976 29.4755 0.75966H25.4952C25.4056 0.730149 25.3085 0.730149 25.2189 0.75966H24.912C24.8515 0.795206 24.7992 0.842544 24.7585 0.898685C24.696 0.970665 24.6443 1.05091 24.605 1.13701C24.1842 2.19038 23.6849 3.2126 23.1111 4.19557C22.7632 4.75167 22.446 5.18861 22.1493 5.65534C21.9257 5.96934 21.6759 6.26494 21.4023 6.53914C21.2315 6.70835 21.0504 6.86752 20.86 7.0158C20.7066 7.13496 20.5838 7.18462 20.5019 7.16476L20.2666 7.1151C20.1331 7.03045 20.0239 6.91427 19.9494 6.77747C19.8582 6.61478 19.8025 6.43564 19.7857 6.25116V1.61367C19.8061 1.40893 19.8061 1.20274 19.7857 0.997989C19.7535 0.847961 19.7055 0.701545 19.6424 0.561052C19.5844 0.422894 19.4845 0.305132 19.3559 0.223419C19.1953 0.139995 19.0229 0.0797784 18.8443 0.0446722C18.2182 -0.0148907 17.5877 -0.0148907 16.9616 0.0446722C15.8363 -0.0569479 14.7013 0.0474765 13.6157 0.352514C13.4128 0.453501 13.2321 0.591779 13.0836 0.75966C12.9097 0.958267 12.8892 1.0675 13.012 1.08736C13.2471 1.09824 13.4774 1.15586 13.6886 1.25664C13.8998 1.35742 14.0874 1.49922 14.2398 1.67325L14.3217 1.83214C14.4142 2.0359 14.4828 2.24908 14.5263 2.46769C14.5874 2.79606 14.6284 3.12765 14.6491 3.46072C14.69 4.02606 14.69 4.59348 14.6491 5.15882C14.6491 5.63548 14.557 6.0029 14.5161 6.26109C14.4665 6.50044 14.3729 6.72917 14.2398 6.93636C14.1955 7.04382 14.1407 7.14691 14.0761 7.2442L14.0045 7.31371C13.883 7.35674 13.7552 7.38022 13.6259 7.38322C13.472 7.34127 13.3314 7.26278 13.2166 7.15483C13.0031 7.00048 12.8075 6.824 12.6334 6.62852C12.3853 6.33712 12.1596 6.02845 11.9581 5.70499C11.6698 5.24549 11.4068 4.77147 11.1702 4.28495L10.9349 3.89766L10.3516 2.78546C10.1138 2.32023 9.90202 1.84287 9.71722 1.35548C9.6538 1.17952 9.53586 1.0269 9.37956 0.918546H9.30794C9.25443 0.857553 9.19244 0.804079 9.12376 0.75966C9.00502 0.71593 8.88138 0.685932 8.7554 0.670286L4.91834 0.700077C4.77256 0.688365 4.62589 0.707123 4.48821 0.755088C4.35053 0.803052 4.22505 0.879109 4.12023 0.978128H4.00768C3.99744 1.05061 3.99744 1.12411 4.00768 1.1966C4.01919 1.32189 4.04668 1.44531 4.08954 1.56402C4.65571 2.88807 5.26964 4.12937 5.93132 5.28791C6.58618 6.46963 7.15918 7.42295 7.64009 8.14786C8.12101 8.87278 8.66331 9.55798 9.15445 10.2035C9.6456 10.8489 10.0344 11.266 10.1777 11.4448L10.5563 11.8519L10.9042 12.1895C11.2268 12.4698 11.5687 12.7286 11.9274 12.9641C12.3997 13.2994 12.8916 13.6078 13.4008 13.8876C13.9816 14.1995 14.6003 14.4397 15.2426 14.6026C15.9109 14.8057 16.6094 14.8997 17.3095 14.8807H18.9262C19.2054 14.8784 19.4729 14.7717 19.6731 14.5828V14.5132C19.7177 14.4349 19.752 14.3515 19.7754 14.265C19.7856 14.1427 19.7856 14.0198 19.7754 13.8976C19.765 13.5444 19.7959 13.1913 19.8675 12.8449C19.9086 12.5997 19.9879 12.3619 20.1029 12.1399C20.1803 11.9906 20.2803 11.8533 20.3996 11.7327L20.6349 11.5341H20.7475C20.888 11.5053 21.0336 11.5092 21.1723 11.5455C21.311 11.5817 21.4389 11.6493 21.5456 11.7427C21.8627 11.971 22.1481 12.238 22.3949 12.5371C22.6609 12.8449 22.9883 13.2024 23.3567 13.5798C23.6657 13.9047 24.0086 14.1975 24.3799 14.4537L24.6664 14.6125C24.8944 14.7417 25.1385 14.8419 25.3929 14.9105C25.6417 14.9979 25.9095 15.0218 26.1705 14.98L29.803 14.8807C30.0866 14.8985 30.3699 14.8401 30.6215 14.7118C30.7017 14.6761 30.7738 14.6252 30.8335 14.5621C30.8933 14.499 30.9395 14.425 30.9694 14.3444C31.0102 14.1947 31.0102 14.0373 30.9694 13.8876C30.951 13.7615 30.9166 13.6381 30.8671 13.5202L30.7852 13.4705Z" fill="white"/>
</g>
<defs>
<filter id="filter0_d_1_495" x="0" y="0" width="35" height="23" filterUnits="userSpaceOnUse" color-interpolation-filters="sRGB">
<feFlood flood-opacity="0" result="BackgroundImageFix"/>
<feColorMatrix in="SourceAlpha" type="matrix" values="0 0 0 0 0 0 0 0 0 0 0 0 0 0 0 0 0 0 127 0" result="hardAlpha"/>
<feOffset dy="4"/>
<feGaussianBlur stdDeviation="2"/>
<feComposite in2="hardAlpha" operator="out"/>
<feColorMatrix type="matrix" values="0 0 0 0 0 0 0 0 0 0 0 0 0 0 0 0 0 0 0.25 0"/>
<feBlend mode="normal" in2="BackgroundImageFix" result="effect1_dropShadow_1_495"/>
<feBlend mode="normal" in="SourceGraphic" in2="effect1_dropShadow_1_495" result="shape"/>
</filter>
</defs>
</svg>
